<svg width="327" height="164" viewBox="0 0 327 164" fill="none" xmlns="http://www.w3.org/2000/svg">
<rect width="327" height="164" rx="8" fill="#47a138"/>
<mask id="mask0_481_1119" style="mask-type:alpha" maskUnits="userSpaceOnUse" x="0" y="0" width="327" height="164">
<rect width="327" height="164" rx="8" fill="#2567f9"/>
</mask>
<g mask="url(#mask0_481_1119)">
<g style="mix-blend-mode: overlay" opacity="0.5">
<rect x="197.1" y="164.3" width="41.1" height="41.1" transform="rotate(-90,197.1,164.3)" fill="#d9d9d9"/>
<rect x="197.1" y="123.2" width="41.1" height="41.1" transform="rotate(-90,197.1,123.2)" fill="#d9d9d9" fill-opacity="0.5"/>
<rect x="238.2" y="123.2" width="41.1" height="41.1" transform="rotate(-90,238.2,123.2)" fill="#d9d9d9" fill-opacity="0.9"/>
<rect x="197.1" y="82.2" width="41.1" height="41.1" transform="rotate(-90,197.1,82.2)" fill="#d9d9d9" fill-opacity="0.9"/>
<rect x="197.1" y="41.1" width="41.1" height="41.1" transform="rotate(-90,197.1,41.1)" fill="#d9d9d9" fill-opacity="0.5"/>
<rect x="156" y="41.1" width="41.1" height="41.1" transform="rotate(-90,156,41.1)" fill="#d9d9d9" fill-opacity="0.9"/>
<rect x="276.9" y="164.3" width="41.1" height="41.1" transform="rotate(-90,276.9,164.3)" fill="#d9d9d9" fill-opacity="0.9"/>
</g>
</g>
<path d="M 18.4 138.6 C 18.1 138.6 17.8 138.5 17.5 138.3 C 17.1 138.1 16.9 137.9 16.7 137.6 C 16.6 137.3 16.5 137 16.5 136.6 C 16.5 136.2 16.6 135.9 16.7 135.6 C 16.9 135.3 17.1 135 17.4 134.9 C 17.7 134.7 18.1 134.6 18.4 134.6 C 18.8 134.6 19.2 134.7 19.5 134.9 C 19.8 135 20 135.3 20.2 135.6 C 20.4 135.9 20.4 136.2 20.4 136.6 C 20.4 137 20.4 137.3 20.2 137.6 C 20 137.9 19.8 138.1 19.5 138.3 C 19.2 138.5 18.8 138.6 18.4 138.6 Z M 27.4 138.6 C 27.1 138.6 26.7 138.5 26.4 138.3 C 26.1 138.1 25.9 137.9 25.7 137.6 C 25.5 137.3 25.5 137 25.5 136.6 C 25.5 136.2 25.5 135.9 25.7 135.6 C 25.9 135.3 26.1 135 26.4 134.9 C 26.7 134.7 27.1 134.6 27.4 134.6 C 27.8 134.6 28.1 134.7 28.4 134.9 C 28.7 135 29 135.3 29.2 135.6 C 29.3 135.9 29.4 136.2 29.4 136.6 C 29.4 137 29.3 137.3 29.2 137.6 C 29 137.9 28.7 138.1 28.4 138.3 C 28.1 138.5 27.8 138.6 27.4 138.6 Z M 36.4 138.6 C 36 138.6 35.7 138.5 35.4 138.3 C 35.1 138.1 34.9 137.9 34.7 137.6 C 34.5 137.3 34.4 137 34.4 136.6 C 34.4 136.2 34.5 135.9 34.7 135.6 C 34.9 135.3 35.1 135 35.4 134.9 C 35.7 134.7 36 134.6 36.4 134.6 C 36.8 134.6 37.1 134.7 37.4 134.9 C 37.7 135 38 135.3 38.1 135.6 C 38.3 135.9 38.4 136.2 38.4 136.6 C 38.4 137 38.3 137.3 38.1 137.6 C 38 137.9 37.7 138.1 37.4 138.3 C 37.1 138.5 36.8 138.6 36.4 138.6 Z M 45.4 138.6 C 45 138.6 44.7 138.5 44.4 138.3 C 44.1 138.1 43.8 137.9 43.7 137.6 C 43.5 137.3 43.4 137 43.4 136.6 C 43.4 136.2 43.5 135.9 43.7 135.6 C 43.8 135.3 44.1 135 44.4 134.9 C 44.7 134.7 45 134.6 45.4 134.6 C 45.7 134.6 46.1 134.7 46.4 134.9 C 46.7 135 46.9 135.3 47.1 135.6 C 47.3 135.9 47.4 136.2 47.4 136.6 C 47.4 137 47.3 137.3 47.1 137.6 C 46.9 137.9 46.7 138.1 46.4 138.3 C 46.1 138.5 45.7 138.6 45.4 138.6 Z" fill="white"/>
<path d="M 55.4 138.6 C 55.1 138.6 54.8 138.5 54.5 138.3 C 54.1 138.1 53.9 137.9 53.7 137.6 C 53.6 137.3 53.5 137 53.5 136.6 C 53.5 136.2 53.6 135.9 53.7 135.6 C 53.9 135.3 54.1 135 54.4 134.9 C 54.7 134.7 55.1 134.6 55.4 134.6 C 55.8 134.6 56.2 134.7 56.5 134.9 C 56.8 135 57 135.3 57.2 135.6 C 57.4 135.9 57.4 136.2 57.4 136.6 C 57.4 137 57.4 137.3 57.2 137.6 C 57 137.9 56.8 138.1 56.5 138.3 C 56.2 138.5 55.8 138.6 55.4 138.6 Z M 64.4 138.6 C 64.1 138.6 63.7 138.5 63.4 138.3 C 63.1 138.1 62.9 137.9 62.7 137.6 C 62.5 137.3 62.5 137 62.5 136.6 C 62.5 136.2 62.5 135.9 62.7 135.6 C 62.9 135.3 63.1 135 63.4 134.9 C 63.7 134.7 64.1 134.6 64.4 134.6 C 64.8 134.6 65.1 134.7 65.4 134.9 C 65.7 135 66 135.3 66.2 135.6 C 66.3 135.9 66.4 136.2 66.4 136.6 C 66.4 137 66.3 137.3 66.2 137.6 C 66 137.9 65.7 138.1 65.4 138.3 C 65.1 138.5 64.8 138.6 64.4 138.6 Z M 73.4 138.6 C 73 138.6 72.7 138.5 72.4 138.3 C 72.1 138.1 71.9 137.9 71.7 137.6 C 71.5 137.3 71.4 137 71.4 136.6 C 71.4 136.2 71.5 135.9 71.7 135.6 C 71.9 135.3 72.1 135 72.4 134.9 C 72.7 134.7 73 134.6 73.4 134.6 C 73.8 134.6 74.1 134.7 74.4 134.9 C 74.7 135 75 135.3 75.1 135.6 C 75.3 135.9 75.4 136.2 75.4 136.6 C 75.4 137 75.3 137.3 75.1 137.6 C 75 137.9 74.7 138.1 74.4 138.3 C 74.1 138.5 73.8 138.6 73.4 138.6 Z M 82.4 138.6 C 82 138.6 81.7 138.5 81.4 138.3 C 81.1 138.1 80.8 137.9 80.7 137.6 C 80.5 137.3 80.4 137 80.4 136.6 C 80.4 136.2 80.5 135.9 80.7 135.6 C 80.8 135.3 81.1 135 81.4 134.9 C 81.7 134.7 82 134.6 82.4 134.6 C 82.7 134.6 83.1 134.7 83.4 134.9 C 83.7 135 83.9 135.3 84.1 135.6 C 84.3 135.9 84.4 136.2 84.4 136.6 C 84.4 137 84.3 137.3 84.1 137.6 C 83.9 137.9 83.7 138.1 83.4 138.3 C 83.1 138.5 82.7 138.6 82.4 138.6 Z" fill="white"/>
<path d="M 18.3 112.1 C 17.8 112.1 17.4 112 16.9 111.8 C 16.5 111.6 16.2 111.3 16 110.9 L 16.5 110.3 C 16.7 110.6 17 110.9 17.3 111 C 17.6 111.2 17.9 111.3 18.3 111.3 C 19.3 111.3 19.8 110.7 19.8 109.5 V 104.4 H 16.8 V 103.6 H 20.7 V 109.4 C 20.7 110.3 20.5 111 20.1 111.4 C 19.7 111.9 19.1 112.1 18.3 112.1 Z M 27 112.1 C 26.4 112.1 25.8 111.9 25.3 111.7 C 24.8 111.4 24.5 111 24.2 110.5 C 23.9 110 23.8 109.5 23.8 108.8 C 23.8 108.2 23.9 107.7 24.2 107.2 C 24.5 106.7 24.8 106.3 25.3 106 C 25.8 105.8 26.4 105.6 27 105.6 C 27.6 105.6 28.1 105.8 28.6 106 C 29.1 106.3 29.5 106.7 29.8 107.2 C 30 107.7 30.2 108.2 30.2 108.8 C 30.2 109.5 30 110 29.8 110.5 C 29.5 111 29.1 111.4 28.6 111.7 C 28.1 111.9 27.6 112.1 27 112.1 Z M 27 111.3 C 27.4 111.3 27.8 111.2 28.2 111 C 28.5 110.8 28.8 110.5 29 110.1 C 29.2 109.8 29.3 109.3 29.3 108.8 C 29.3 108.3 29.2 107.9 29 107.5 C 28.8 107.2 28.5 106.9 28.2 106.7 C 27.8 106.5 27.4 106.4 27 106.4 C 26.5 106.4 26.1 106.5 25.8 106.7 C 25.4 106.9 25.1 107.2 24.9 107.5 C 24.7 107.9 24.6 108.3 24.6 108.8 C 24.6 109.3 24.7 109.8 24.9 110.1 C 25.1 110.5 25.4 110.8 25.8 111 C 26.1 111.2 26.5 111.3 27 111.3 Z M 37 112 V 110.6 L 37 110.4 V 108.1 C 37 107.5 36.8 107.1 36.5 106.8 C 36.2 106.5 35.8 106.4 35.2 106.4 C 34.8 106.4 34.4 106.5 34 106.6 C 33.7 106.7 33.4 106.9 33.1 107.1 L 32.7 106.5 C 33 106.2 33.4 106 33.9 105.9 C 34.3 105.7 34.8 105.6 35.3 105.6 C 36.1 105.6 36.7 105.8 37.2 106.3 C 37.6 106.7 37.9 107.3 37.9 108.1 V 112 H 37 Z M 34.9 112.1 C 34.4 112.1 34 112 33.6 111.8 C 33.3 111.7 33 111.5 32.8 111.2 C 32.7 110.9 32.6 110.6 32.6 110.2 C 32.6 109.9 32.6 109.6 32.8 109.3 C 32.9 109.1 33.2 108.8 33.6 108.7 C 33.9 108.5 34.4 108.4 35 108.4 H 37.2 V 109.1 H 35 C 34.4 109.1 34 109.2 33.7 109.4 C 33.5 109.6 33.4 109.9 33.4 110.2 C 33.4 110.6 33.5 110.8 33.8 111.1 C 34.1 111.3 34.5 111.4 35 111.4 C 35.5 111.4 35.9 111.3 36.2 111.1 C 36.6 110.8 36.8 110.5 37 110.1 L 37.2 110.7 C 37 111.1 36.8 111.4 36.4 111.7 C 36 111.9 35.5 112.1 34.9 112.1 Z M 44.6 105.6 C 45.1 105.6 45.5 105.7 45.9 105.9 C 46.3 106.1 46.6 106.4 46.8 106.8 C 47.1 107.2 47.2 107.7 47.2 108.3 V 112 H 46.3 V 108.4 C 46.3 107.8 46.2 107.3 45.8 106.9 C 45.5 106.6 45 106.4 44.4 106.4 C 44 106.4 43.6 106.5 43.3 106.7 C 42.9 106.9 42.7 107.1 42.5 107.5 C 42.3 107.8 42.2 108.2 42.2 108.7 V 112 H 41.4 V 105.7 H 42.2 V 107.4 L 42.1 107.1 C 42.3 106.6 42.6 106.3 43 106 C 43.5 105.8 44 105.6 44.6 105.6 Z M 54.6 112 V 110.6 L 54.6 110.4 V 108.1 C 54.6 107.5 54.4 107.1 54.1 106.8 C 53.8 106.5 53.4 106.4 52.8 106.4 C 52.4 106.4 52 106.5 51.6 106.6 C 51.3 106.7 51 106.9 50.7 107.1 L 50.3 106.5 C 50.6 106.2 51 106 51.5 105.9 C 51.9 105.7 52.4 105.6 52.9 105.6 C 53.7 105.6 54.3 105.8 54.8 106.3 C 55.2 106.7 55.4 107.3 55.4 108.1 V 112 H 54.6 Z M 52.5 112.1 C 52 112.1 51.6 112 51.2 111.8 C 50.9 111.7 50.6 111.5 50.4 111.2 C 50.2 110.9 50.1 110.6 50.1 110.2 C 50.1 109.9 50.2 109.6 50.4 109.3 C 50.5 109.1 50.8 108.8 51.1 108.7 C 51.5 108.5 52 108.4 52.6 108.4 H 54.8 V 109.1 H 52.6 C 52 109.1 51.6 109.2 51.3 109.4 C 51.1 109.6 51 109.9 51 110.2 C 51 110.6 51.1 110.8 51.4 111.1 C 51.7 111.3 52.1 111.4 52.6 111.4 C 53.1 111.4 53.5 111.3 53.8 111.1 C 54.2 110.8 54.4 110.5 54.6 110.1 L 54.8 110.7 C 54.6 111.1 54.3 111.4 53.9 111.7 C 53.5 111.9 53.1 112.1 52.5 112.1 Z M 64.3 107.7 H 68.7 V 108.4 H 64.3 V 107.7 Z M 64.4 112 H 63.5 V 103.6 H 69.2 V 104.4 H 64.4 V 112 Z M 74.4 112.1 C 73.8 112.1 73.3 111.9 72.8 111.7 C 72.3 111.4 71.9 111 71.7 110.5 C 71.4 110 71.2 109.5 71.2 108.8 C 71.2 108.2 71.4 107.7 71.7 107.2 C 71.9 106.7 72.3 106.3 72.8 106 C 73.3 105.8 73.8 105.6 74.4 105.6 C 75.1 105.6 75.6 105.8 76.1 106 C 76.6 106.3 77 106.7 77.2 107.2 C 77.5 107.7 77.7 108.2 77.7 108.8 C 77.7 109.5 77.5 110 77.2 110.5 C 77 111 76.6 111.4 76.1 111.7 C 75.6 111.9 75.1 112.1 74.4 112.1 Z M 74.4 111.3 C 74.9 111.3 75.3 111.2 75.7 111 C 76 110.8 76.3 110.5 76.5 110.1 C 76.7 109.8 76.8 109.3 76.8 108.8 C 76.8 108.3 76.7 107.9 76.5 107.5 C 76.3 107.2 76 106.9 75.7 106.7 C 75.3 106.5 74.9 106.4 74.5 106.4 C 74 106.4 73.6 106.5 73.3 106.7 C 72.9 106.9 72.6 107.2 72.4 107.5 C 72.2 107.9 72.1 108.3 72.1 108.8 C 72.1 109.3 72.2 109.8 72.4 110.1 C 72.6 110.5 72.9 110.8 73.3 111 C 73.6 111.2 74 111.3 74.4 111.3 Z M 83.8 105.6 C 84.3 105.6 84.8 105.7 85.2 105.9 C 85.6 106.1 85.9 106.4 86.1 106.8 C 86.3 107.2 86.4 107.7 86.4 108.3 V 112 H 85.6 V 108.4 C 85.6 107.8 85.4 107.3 85.1 106.9 C 84.7 106.6 84.3 106.4 83.7 106.4 C 83.2 106.4 82.8 106.5 82.5 106.7 C 82.2 106.9 81.9 107.1 81.7 107.5 C 81.5 107.8 81.5 108.2 81.5 108.7 V 112 H 80.6 V 105.7 H 81.4 V 107.4 L 81.3 107.1 C 81.5 106.6 81.8 106.3 82.2 106 C 82.7 105.8 83.2 105.6 83.8 105.6 Z M 91.6 112.1 C 91.1 112.1 90.6 112 90.1 111.8 C 89.7 111.7 89.3 111.5 89 111.3 L 89.4 110.6 C 89.7 110.8 90 111 90.4 111.1 C 90.8 111.2 91.2 111.3 91.7 111.3 C 92.3 111.3 92.7 111.2 93 111 C 93.2 110.8 93.4 110.6 93.4 110.3 C 93.4 110.1 93.3 109.9 93.1 109.7 C 93 109.6 92.8 109.5 92.5 109.4 C 92.3 109.4 92 109.3 91.7 109.3 C 91.4 109.2 91.2 109.2 90.9 109.1 C 90.6 109 90.3 108.9 90.1 108.8 C 89.8 108.7 89.6 108.5 89.5 108.3 C 89.3 108.1 89.3 107.8 89.3 107.4 C 89.3 107.1 89.4 106.8 89.5 106.5 C 89.7 106.2 90 106 90.4 105.9 C 90.8 105.7 91.2 105.6 91.8 105.6 C 92.2 105.6 92.6 105.7 93 105.8 C 93.4 105.9 93.7 106.1 94 106.2 L 93.6 106.9 C 93.3 106.7 93 106.6 92.7 106.5 C 92.4 106.4 92.1 106.4 91.8 106.4 C 91.2 106.4 90.8 106.5 90.5 106.7 C 90.2 106.9 90.1 107.1 90.1 107.4 C 90.1 107.7 90.2 107.8 90.3 108 C 90.5 108.1 90.7 108.2 90.9 108.3 C 91.2 108.4 91.4 108.4 91.7 108.5 C 92 108.5 92.3 108.6 92.6 108.7 C 92.9 108.7 93.1 108.8 93.4 108.9 C 93.6 109.1 93.8 109.2 94 109.4 C 94.1 109.6 94.2 109.9 94.2 110.3 C 94.2 110.6 94.1 110.9 93.9 111.2 C 93.7 111.5 93.4 111.7 93 111.8 C 92.6 112 92.2 112.1 91.6 112.1 Z M 99.6 112.1 C 99 112.1 98.4 111.9 97.9 111.7 C 97.4 111.4 97 111 96.8 110.5 C 96.5 110 96.3 109.5 96.3 108.8 C 96.3 108.2 96.5 107.7 96.7 107.2 C 97 106.7 97.4 106.3 97.8 106.1 C 98.3 105.8 98.8 105.6 99.4 105.6 C 100 105.6 100.5 105.8 101 106 C 101.5 106.3 101.8 106.7 102.1 107.2 C 102.3 107.7 102.5 108.2 102.5 108.8 C 102.5 108.9 102.5 108.9 102.5 109 C 102.5 109 102.5 109.1 102.5 109.1 H 97 V 108.5 H 102 L 101.7 108.7 C 101.7 108.3 101.6 107.9 101.4 107.5 C 101.2 107.2 100.9 106.9 100.6 106.7 C 100.2 106.5 99.9 106.4 99.4 106.4 C 99 106.4 98.6 106.5 98.3 106.7 C 97.9 106.9 97.6 107.2 97.4 107.5 C 97.3 107.9 97.2 108.3 97.2 108.7 V 108.9 C 97.2 109.4 97.3 109.8 97.5 110.2 C 97.7 110.5 98 110.8 98.4 111 C 98.7 111.2 99.2 111.3 99.7 111.3 C 100.1 111.3 100.4 111.2 100.7 111.1 C 101.1 111 101.4 110.8 101.6 110.5 L 102.1 111 C 101.8 111.4 101.4 111.6 101 111.8 C 100.6 112 100.1 112.1 99.6 112.1 Z M 108 112.1 C 107.4 112.1 106.8 111.9 106.3 111.7 C 105.9 111.4 105.5 111 105.2 110.5 C 104.9 110 104.8 109.5 104.8 108.8 C 104.8 108.2 104.9 107.7 105.2 107.2 C 105.5 106.7 105.9 106.3 106.3 106 C 106.8 105.8 107.4 105.6 108 105.6 C 108.6 105.6 109 105.7 109.5 106 C 109.9 106.2 110.3 106.5 110.5 106.9 L 109.9 107.3 C 109.6 107 109.4 106.8 109.1 106.6 C 108.7 106.5 108.4 106.4 108 106.4 C 107.6 106.4 107.2 106.5 106.8 106.7 C 106.4 106.9 106.2 107.2 106 107.5 C 105.7 107.9 105.6 108.3 105.6 108.8 C 105.6 109.3 105.7 109.8 106 110.1 C 106.2 110.5 106.4 110.8 106.8 111 C 107.2 111.2 107.6 111.3 108 111.3 C 108.4 111.3 108.7 111.2 109.1 111.1 C 109.4 110.9 109.6 110.7 109.9 110.4 L 110.5 110.8 C 110.3 111.2 109.9 111.5 109.5 111.7 C 109 112 108.6 112.1 108 112.1 Z M 117.3 112 V 110.6 L 117.3 110.4 V 108.1 C 117.3 107.5 117.1 107.1 116.8 106.8 C 116.5 106.5 116.1 106.4 115.5 106.4 C 115.1 106.4 114.7 106.5 114.3 106.6 C 114 106.7 113.7 106.9 113.4 107.1 L 113 106.5 C 113.3 106.2 113.7 106 114.2 105.9 C 114.6 105.7 115.1 105.6 115.6 105.6 C 116.4 105.6 117 105.8 117.5 106.3 C 117.9 106.7 118.1 107.3 118.1 108.1 V 112 H 117.3 Z M 115.1 112.1 C 114.7 112.1 114.3 112 113.9 111.8 C 113.6 111.7 113.3 111.5 113.1 111.2 C 112.9 110.9 112.8 110.6 112.8 110.2 C 112.8 109.9 112.9 109.6 113.1 109.3 C 113.2 109.1 113.5 108.8 113.8 108.7 C 114.2 108.5 114.7 108.4 115.3 108.4 H 117.5 V 109.1 H 115.3 C 114.7 109.1 114.3 109.2 114 109.4 C 113.8 109.6 113.7 109.9 113.7 110.2 C 113.7 110.6 113.8 110.8 114.1 111.1 C 114.4 111.3 114.8 111.4 115.3 111.4 C 115.8 111.4 116.2 111.3 116.5 111.1 C 116.9 110.8 117.1 110.5 117.3 110.1 L 117.5 110.7 C 117.3 111.1 117 111.4 116.6 111.7 C 116.2 111.9 115.7 112.1 115.1 112.1 Z M 129.9 112.1 C 129.2 112.1 128.6 112 128.1 111.8 C 127.5 111.5 127.1 111.2 126.7 110.9 C 126.3 110.5 126 110 125.8 109.5 C 125.5 109 125.4 108.4 125.4 107.8 C 125.4 107.2 125.5 106.6 125.8 106.1 C 126 105.6 126.3 105.1 126.7 104.7 C 127.1 104.4 127.6 104.1 128.1 103.9 C 128.6 103.6 129.2 103.5 129.9 103.5 C 130.5 103.5 131.1 103.6 131.6 103.8 C 132.2 104 132.6 104.3 133 104.7 L 132.4 105.3 C 132.1 105 131.7 104.7 131.3 104.5 C 130.8 104.4 130.4 104.3 129.9 104.3 C 129.4 104.3 128.9 104.4 128.5 104.6 C 128 104.8 127.7 105 127.3 105.3 C 127 105.6 126.8 106 126.6 106.4 C 126.4 106.8 126.3 107.3 126.3 107.8 C 126.3 108.3 126.4 108.8 126.6 109.2 C 126.8 109.6 127 110 127.3 110.3 C 127.7 110.6 128 110.9 128.5 111 C 128.9 111.2 129.4 111.3 129.9 111.3 C 130.4 111.3 130.8 111.2 131.2 111.1 C 131.7 110.9 132.1 110.7 132.4 110.3 L 132.9 111 C 132.5 111.4 132.1 111.6 131.5 111.8 C 131 112 130.4 112.1 129.9 112.1 Z M 132.1 110.9 V 107.8 H 132.9 V 111 L 132.1 110.9 Z M 139 112.1 C 138.4 112.1 137.9 111.9 137.4 111.7 C 136.9 111.4 136.5 111 136.3 110.5 C 136 110 135.8 109.5 135.8 108.8 C 135.8 108.2 136 107.7 136.3 107.2 C 136.5 106.7 136.9 106.3 137.4 106 C 137.9 105.8 138.4 105.6 139 105.6 C 139.7 105.6 140.2 105.8 140.7 106 C 141.2 106.3 141.6 106.7 141.8 107.2 C 142.1 107.7 142.3 108.2 142.3 108.8 C 142.3 109.5 142.1 110 141.8 110.5 C 141.6 111 141.2 111.4 140.7 111.7 C 140.2 111.9 139.7 112.1 139 112.1 Z M 139 111.3 C 139.5 111.3 139.9 111.2 140.3 111 C 140.6 110.8 140.9 110.5 141.1 110.1 C 141.3 109.8 141.4 109.3 141.4 108.8 C 141.4 108.3 141.3 107.9 141.1 107.5 C 140.9 107.2 140.6 106.9 140.3 106.7 C 139.9 106.5 139.5 106.4 139.1 106.4 C 138.6 106.4 138.2 106.5 137.9 106.7 C 137.5 106.9 137.2 107.2 137 107.5 C 136.8 107.9 136.7 108.3 136.7 108.8 C 136.7 109.3 136.8 109.8 137 110.1 C 137.2 110.5 137.5 110.8 137.9 111 C 138.2 111.2 138.6 111.3 139 111.3 Z M 153.1 105.6 C 153.6 105.6 154 105.7 154.4 105.9 C 154.8 106.1 155.1 106.4 155.3 106.8 C 155.5 107.2 155.6 107.7 155.6 108.3 V 112 H 154.8 V 108.4 C 154.8 107.8 154.6 107.3 154.3 106.9 C 154 106.6 153.5 106.4 152.9 106.4 C 152.5 106.4 152.1 106.5 151.8 106.7 C 151.5 106.9 151.3 107.1 151.1 107.5 C 150.9 107.8 150.8 108.2 150.8 108.7 V 112 H 150 V 108.4 C 150 107.8 149.8 107.3 149.5 106.9 C 149.2 106.6 148.7 106.4 148.2 106.4 C 147.7 106.4 147.4 106.5 147 106.7 C 146.7 106.9 146.5 107.1 146.3 107.5 C 146.1 107.8 146 108.2 146 108.7 V 112 H 145.2 V 105.7 H 146 V 107.4 L 145.9 107.1 C 146.1 106.6 146.4 106.3 146.8 106 C 147.2 105.8 147.7 105.6 148.3 105.6 C 148.9 105.6 149.5 105.8 149.9 106.1 C 150.3 106.4 150.6 106.9 150.7 107.5 L 150.4 107.4 C 150.6 106.8 150.9 106.4 151.4 106.1 C 151.8 105.8 152.4 105.6 153.1 105.6 Z M 161.8 112.1 C 161.1 112.1 160.6 111.9 160.1 111.7 C 159.6 111.4 159.2 111 158.9 110.5 C 158.6 110 158.5 109.5 158.5 108.8 C 158.5 108.2 158.6 107.7 158.9 107.2 C 159.2 106.7 159.5 106.3 160 106.1 C 160.5 105.8 161 105.6 161.6 105.6 C 162.2 105.6 162.7 105.8 163.1 106 C 163.6 106.3 164 106.7 164.2 107.2 C 164.5 107.7 164.6 108.2 164.6 108.8 C 164.6 108.9 164.6 108.9 164.6 109 C 164.6 109 164.6 109.1 164.6 109.1 H 159.1 V 108.5 H 164.2 L 163.8 108.7 C 163.8 108.3 163.7 107.9 163.5 107.5 C 163.3 107.2 163.1 106.9 162.7 106.7 C 162.4 106.5 162 106.4 161.6 106.4 C 161.1 106.4 160.8 106.5 160.4 106.7 C 160.1 106.9 159.8 107.2 159.6 107.5 C 159.4 107.9 159.3 108.3 159.3 108.7 V 108.9 C 159.3 109.4 159.4 109.8 159.6 110.2 C 159.8 110.5 160.1 110.8 160.5 111 C 160.9 111.2 161.3 111.3 161.8 111.3 C 162.2 111.3 162.6 111.2 162.9 111.1 C 163.2 111 163.5 110.8 163.8 110.5 L 164.2 111 C 164 111.4 163.6 111.6 163.2 111.8 C 162.8 112 162.3 112.1 161.8 112.1 Z M 169.3 112.1 C 168.7 112.1 168.2 112 167.8 111.8 C 167.3 111.7 167 111.5 166.7 111.3 L 167.1 110.6 C 167.3 110.8 167.7 111 168.1 111.1 C 168.5 111.2 168.9 111.3 169.3 111.3 C 169.9 111.3 170.3 111.2 170.6 111 C 170.9 110.8 171 110.6 171 110.3 C 171 110.1 170.9 109.9 170.8 109.7 C 170.6 109.6 170.4 109.5 170.2 109.4 C 170 109.4 169.7 109.3 169.4 109.3 C 169.1 109.2 168.8 109.2 168.5 109.1 C 168.2 109 168 108.9 167.7 108.8 C 167.5 108.7 167.3 108.5 167.1 108.3 C 167 108.1 166.9 107.8 166.9 107.4 C 166.9 107.1 167 106.8 167.2 106.5 C 167.4 106.2 167.7 106 168 105.9 C 168.4 105.7 168.9 105.6 169.4 105.6 C 169.8 105.6 170.2 105.7 170.6 105.8 C 171 105.9 171.4 106.1 171.6 106.2 L 171.3 106.9 C 171 106.7 170.7 106.6 170.4 106.5 C 170.1 106.4 169.7 106.4 169.4 106.4 C 168.8 106.4 168.4 106.5 168.2 106.7 C 167.9 106.9 167.8 107.1 167.8 107.4 C 167.8 107.7 167.8 107.8 168 108 C 168.1 108.1 168.3 108.2 168.6 108.3 C 168.8 108.4 169.1 108.4 169.4 108.5 C 169.7 108.5 170 108.6 170.2 108.7 C 170.5 108.7 170.8 108.8 171 108.9 C 171.3 109.1 171.5 109.2 171.6 109.4 C 171.8 109.6 171.9 109.9 171.9 110.3 C 171.9 110.6 171.8 110.9 171.5 111.2 C 171.3 111.5 171.1 111.7 170.7 111.8 C 170.3 112 169.8 112.1 169.3 112.1 Z" fill="white"/>
<path d="M 22 50.8 C 23.4 50.8 24.6 51.1 25.4 51.8 C 26.2 52.5 26.6 53.4 26.6 54.6 C 26.6 55.8 26.2 56.8 25.4 57.5 C 24.6 58.1 23.4 58.5 22 58.5 H 19 V 62 H 17.8 V 50.8 H 22 Z M 22 57.4 C 23.1 57.4 23.9 57.2 24.5 56.7 C 25.1 56.2 25.4 55.5 25.4 54.6 C 25.4 53.7 25.1 53 24.5 52.6 C 23.9 52.1 23.1 51.8 22 51.8 H 19 V 57.4 H 22 Z M 29.4 50.1 H 30.5 V 62 H 29.4 V 50.1 Z M 36.9 53.5 C 38 53.5 38.9 53.8 39.4 54.4 C 40 54.9 40.3 55.7 40.3 56.8 V 62 H 39.2 V 60.7 C 39 61.1 38.6 61.5 38.1 61.7 C 37.6 62 37 62.1 36.3 62.1 C 35.4 62.1 34.7 61.9 34.1 61.4 C 33.5 61 33.3 60.4 33.3 59.6 C 33.3 58.9 33.5 58.3 34 57.9 C 34.6 57.5 35.4 57.2 36.5 57.2 H 39.2 V 56.7 C 39.2 56 39 55.5 38.6 55.1 C 38.2 54.7 37.6 54.5 36.8 54.5 C 36.3 54.5 35.8 54.6 35.3 54.8 C 34.8 55 34.4 55.2 34 55.5 L 33.5 54.7 C 33.9 54.3 34.4 54 35 53.8 C 35.6 53.6 36.3 53.5 36.9 53.5 Z M 36.5 61.2 C 37.2 61.2 37.7 61 38.2 60.8 C 38.6 60.5 39 60 39.2 59.5 V 58.1 H 36.5 C 35.1 58.1 34.4 58.6 34.4 59.6 C 34.4 60.1 34.6 60.5 34.9 60.8 C 35.3 61 35.8 61.2 36.5 61.2 Z M 48.1 61.5 C 47.9 61.7 47.7 61.8 47.3 61.9 C 47 62 46.7 62.1 46.4 62.1 C 45.6 62.1 45 61.9 44.5 61.4 C 44.1 61 43.9 60.4 43.9 59.6 V 54.5 H 42.4 V 53.6 H 43.9 V 51.7 H 45 V 53.6 H 47.6 V 54.5 H 45 V 59.6 C 45 60.1 45.2 60.5 45.4 60.7 C 45.7 61 46 61.1 46.5 61.1 C 46.7 61.1 47 61.1 47.2 61 C 47.4 60.9 47.6 60.8 47.7 60.7 L 48.1 61.5 Z M 50.5 53.6 H 51.7 V 62 H 50.5 V 53.6 Z M 51.1 51.7 C 50.9 51.7 50.7 51.7 50.5 51.5 C 50.3 51.3 50.3 51.2 50.3 50.9 C 50.3 50.7 50.3 50.5 50.5 50.4 C 50.7 50.2 50.9 50.1 51.1 50.1 C 51.3 50.1 51.5 50.2 51.7 50.4 C 51.8 50.5 51.9 50.7 51.9 50.9 C 51.9 51.1 51.8 51.3 51.7 51.5 C 51.5 51.7 51.3 51.7 51.1 51.7 Z M 59.4 53.5 C 60.5 53.5 61.3 53.8 61.9 54.4 C 62.5 55.1 62.9 55.9 62.9 57.1 V 62 H 61.7 V 57.2 C 61.7 56.4 61.5 55.7 61.1 55.2 C 60.6 54.8 60 54.5 59.2 54.5 C 58.3 54.5 57.6 54.8 57 55.4 C 56.5 55.9 56.3 56.6 56.3 57.6 V 62 H 55.1 V 53.6 H 56.2 V 55.1 C 56.5 54.6 56.9 54.2 57.5 54 C 58 53.7 58.7 53.5 59.4 53.5 Z M 73.8 53.6 V 62 H 72.7 V 60.5 C 72.4 61 72 61.4 71.5 61.7 C 71 61.9 70.4 62.1 69.7 62.1 C 68.6 62.1 67.8 61.8 67.1 61.2 C 66.5 60.5 66.2 59.6 66.2 58.5 V 53.6 H 67.3 V 58.4 C 67.3 59.2 67.5 59.9 68 60.4 C 68.4 60.8 69 61.1 69.8 61.1 C 70.7 61.1 71.4 60.8 71.9 60.3 C 72.4 59.7 72.7 59 72.7 58 V 53.6 H 73.8 Z M 87.8 53.5 C 88.9 53.5 89.7 53.8 90.3 54.4 C 90.9 55 91.2 55.9 91.2 57.1 V 62 H 90.1 V 57.2 C 90.1 56.4 89.9 55.7 89.4 55.2 C 89 54.8 88.4 54.5 87.7 54.5 C 86.8 54.5 86.1 54.8 85.6 55.4 C 85.1 55.9 84.8 56.6 84.8 57.6 V 62 H 83.7 V 57.2 C 83.7 56.4 83.5 55.7 83.1 55.2 C 82.6 54.8 82.1 54.5 81.3 54.5 C 80.4 54.5 79.7 54.8 79.2 55.4 C 78.7 55.9 78.5 56.6 78.5 57.6 V 62 H 77.3 V 53.6 H 78.4 V 55.1 C 78.7 54.6 79.1 54.2 79.7 53.9 C 80.2 53.7 80.8 53.5 81.5 53.5 C 82.2 53.5 82.8 53.7 83.3 54 C 83.8 54.3 84.2 54.7 84.5 55.3 C 84.8 54.7 85.2 54.3 85.8 54 C 86.4 53.7 87.1 53.5 87.8 53.5 Z" fill="white"/>
    <text textLength="55.3" font-size="19.5" x="15.6" y="35.1" fill="rgb(255, 255, 255)">
        $trapa
    </text>
</svg>
