<svg width="146" height="32" viewBox="0 0 146 32" fill="none" xmlns="http://www.w3.org/2000/svg">
<path d="M 92.6 6.4 L 91.8 12.1 C 91.6 13.4 91.4 14.4 91.1 15.3 C 92 14.4 93 13.6 94 13 C 95.1 12.4 96.1 12.1 97 12.1 C 98.1 12.1 98.9 12.3 99.5 12.7 C 100.1 13.1 100.5 13.8 100.8 14.9 C 101 16 101 17.6 100.7 19.5 C 100.4 21 100.2 22.3 99.8 23.3 C 99.4 24.2 98.9 24.9 98.3 25.4 C 97.7 25.9 97.1 26.2 96.5 26.3 C 95.9 26.5 95.1 26.6 94.1 26.6 C 91.8 26.6 89.5 26.2 87.2 25.6 L 89.9 6.4 H 92.6 Z M 91 17.4 L 90.1 24.2 C 91.4 24.3 92.4 24.3 93.1 24.3 C 94.9 24.3 96 24 96.6 23.5 C 97.2 22.9 97.6 21.5 97.9 19.3 C 98.2 17.2 98.2 15.9 98 15.3 C 97.8 14.7 97.2 14.4 96.4 14.4 C 95 14.5 93.3 15.4 91 17.4 Z" fill="#47a138"/>
<path d="M 114.2 26.2 H 112.1 L 112.2 23.7 C 110.5 25.6 108.6 26.5 106.3 26.5 C 104.6 26.5 103.5 26 102.9 24.9 C 102.3 23.8 102.2 21.9 102.6 19.1 C 102.8 17.6 103.1 16.4 103.5 15.4 C 103.8 14.4 104.3 13.7 105 13.2 C 105.6 12.8 106.2 12.4 106.9 12.3 C 107.5 12.1 108.4 12 109.4 12 C 111.6 12 113.9 12.3 116.1 12.8 L 114.2 26.2 Z M 112.2 21.2 L 113.1 14.4 C 111.4 14.4 110.5 14.3 110.2 14.3 C 109.3 14.3 108.5 14.4 108 14.5 C 107.5 14.6 107.1 14.8 106.7 15.2 C 106.3 15.6 106 16.1 105.8 16.7 C 105.7 17.3 105.5 18.2 105.3 19.3 C 105.1 21.4 105 22.7 105.2 23.3 C 105.4 23.9 106 24.2 106.8 24.2 C 107.7 24.2 108.6 23.9 109.4 23.4 C 110.2 23 111.1 22.2 112.2 21.2 Z" fill="#47a138"/>
<path d="M 121.3 12.4 L 121.2 15.4 C 123.6 13.2 125.8 12 127.7 12 C 128.8 12 129.7 12.4 130.3 13.1 C 130.9 13.7 131.1 14.7 130.9 15.9 L 129.5 26.2 H 126.8 L 128.1 16.6 C 128.2 15.7 128.2 15.1 128 14.8 C 127.8 14.5 127.4 14.4 126.8 14.4 C 126 14.4 125.2 14.6 124.4 15.1 C 123.6 15.5 122.5 16.3 121.1 17.4 L 119.9 26.2 H 117.2 L 119.1 12.4 H 121.3 V 12.4 Z" fill="#47a138"/>
<path d="M 142.9 12.4 H 145.7 C 144.9 14.9 143.4 16.9 141.1 18.5 C 141.4 19 141.7 19.5 142 20.2 L 144.7 26.2 H 141.7 L 139.1 19.8 C 138.2 20.3 137.2 20.8 135.8 21.4 L 135.1 26.2 H 132.4 L 135.2 6.4 H 137.9 L 136.7 15.7 C 136.5 16.8 136.2 18 135.8 19.1 C 137.5 18.2 139.1 17.2 140.4 16.1 C 141.7 15 142.5 13.7 142.9 12.4 Z" fill="#47a138"/>
<path d="M 92.6 6.4 L 91.8 12.1 C 91.6 13.4 91.4 14.4 91.1 15.3 C 92 14.4 93 13.6 94 13 C 95.1 12.4 96.1 12.1 97 12.1 C 98.1 12.1 98.9 12.3 99.5 12.7 C 100.1 13.1 100.5 13.8 100.8 14.9 C 101 16 101 17.6 100.7 19.5 C 100.4 21 100.2 22.3 99.8 23.3 C 99.4 24.2 98.9 24.9 98.3 25.4 C 97.7 25.9 97.1 26.2 96.5 26.3 C 95.9 26.5 95.1 26.6 94.1 26.6 C 91.8 26.6 89.5 26.2 87.2 25.6 L 89.9 6.4 H 92.6 Z M 91 17.4 L 90.1 24.2 C 91.4 24.3 92.4 24.3 93.1 24.3 C 94.9 24.3 96 24 96.6 23.5 C 97.2 22.9 97.6 21.5 97.9 19.3 C 98.2 17.2 98.2 15.9 98 15.3 C 97.8 14.7 97.2 14.4 96.4 14.4 C 95 14.5 93.3 15.4 91 17.4 Z" fill="#47a138"/>
<path d="M 114.2 26.2 H 112.1 L 112.2 23.7 C 110.5 25.6 108.6 26.5 106.3 26.5 C 104.6 26.5 103.5 26 102.9 24.9 C 102.3 23.8 102.2 21.9 102.6 19.1 C 102.8 17.6 103.1 16.4 103.5 15.4 C 103.8 14.4 104.3 13.7 105 13.2 C 105.6 12.8 106.2 12.4 106.9 12.3 C 107.5 12.1 108.4 12 109.4 12 C 111.6 12 113.9 12.3 116.1 12.8 L 114.2 26.2 Z M 112.2 21.2 L 113.1 14.4 C 111.4 14.4 110.5 14.3 110.2 14.3 C 109.3 14.3 108.5 14.4 108 14.5 C 107.5 14.6 107.1 14.8 106.7 15.2 C 106.3 15.6 106 16.1 105.8 16.7 C 105.7 17.3 105.5 18.2 105.3 19.3 C 105.1 21.4 105 22.7 105.2 23.3 C 105.4 23.9 106 24.2 106.8 24.2 C 107.7 24.2 108.6 23.9 109.4 23.4 C 110.2 23 111.1 22.2 112.2 21.2 Z" fill="#47a138"/>
<path d="M 121.3 12.4 L 121.2 15.4 C 123.6 13.2 125.8 12 127.7 12 C 128.8 12 129.7 12.4 130.3 13.1 C 130.9 13.7 131.1 14.7 130.9 15.9 L 129.5 26.2 H 126.8 L 128.1 16.6 C 128.2 15.7 128.2 15.1 128 14.8 C 127.8 14.5 127.4 14.4 126.8 14.4 C 126 14.4 125.2 14.6 124.4 15.1 C 123.6 15.5 122.5 16.3 121.1 17.4 L 119.9 26.2 H 117.2 L 119.1 12.4 H 121.3 V 12.4 Z" fill="#47a138"/>
<path d="M 142.9 12.4 H 145.7 C 144.9 14.9 143.4 16.9 141.1 18.5 C 141.4 19 141.7 19.5 142 20.2 L 144.7 26.2 H 141.7 L 139.1 19.8 C 138.2 20.3 137.2 20.8 135.8 21.4 L 135.1 26.2 H 132.4 L 135.2 6.4 H 137.9 L 136.7 15.7 C 136.5 16.8 136.2 18 135.8 19.1 C 137.5 18.2 139.1 17.2 140.4 16.1 C 141.7 15 142.5 13.7 142.9 12.4 Z" fill="#47a138"/>
    <text textLength="76.1" font-size="27.7" x="9.2" y="26.4" fill="#47a138">
        $trapa
    </text>
</svg>
